<?xml version="1.0" encoding="UTF-8" standalone="no"?>
<!-- Created with Inkscape (http://www.inkscape.org/) -->

<svg
   width="14.552113mm"
   height="15.875011mm"
   viewBox="0 0 14.552112 15.875011"
   version="1.1"
   id="svg1"
   xml:space="preserve"
   xmlns="http://www.w3.org/2000/svg"
   xmlns:svg="http://www.w3.org/2000/svg"><defs
     id="defs1" /><g
     id="g2"
     transform="translate(-106.19799,-199.35849)"><path
       d="m 113.60013,215.19429 c -3.58942,-0.46151 -6.47425,-2.96782 -7.24285,-6.29251 -0.1492,-0.64536 -0.20547,-1.85729 -0.11739,-2.528 0.13649,-1.03923 0.5192,-2.13297 1.04583,-2.98885 0.25687,-0.41746 0.93397,-1.30792 0.96943,-1.2749 0.0115,0.0109 0.0302,1.33381 0.0416,2.94018 0.0224,3.16932 0.0383,3.34805 0.3714,4.21189 0.77771,2.01641 2.63556,3.51145 4.85256,3.90492 0.63498,0.11269 1.79534,0.11296 2.4243,5.9e-4 1.1,-0.19655 2.0716,-0.63806 2.99747,-1.36211 l 0.33465,-0.2617 0.73646,0.69529 0.73649,0.69528 -0.3779,0.32589 c -0.99939,0.8618 -2.43564,1.53526 -3.91296,1.83479 -0.62515,0.12674 -2.21584,0.18196 -2.85915,0.0992 z m 0.0415,-4.05705 c -0.7384,-0.18016 -1.31162,-0.49653 -1.90456,-1.05112 -0.6022,-0.56326 -0.94346,-1.10417 -1.13375,-1.79706 -0.10846,-0.39482 -0.11446,-0.61397 -0.11446,-4.17417 v -3.75746 l 0.53778,-0.23527 c 0.62809,-0.27477 1.43988,-0.52645 2.13654,-0.66239 0.74594,-0.14555 2.50149,-0.13179 3.26632,0.0256 1.52167,0.31312 2.95361,0.98154 3.94272,1.84041 l 0.37788,0.32813 -0.73646,0.6953 -0.73649,0.69529 -0.33465,-0.26171 c -0.92677,-0.72474 -1.90098,-1.16718 -2.99747,-1.36131 -0.93538,-0.16559 -2.49459,-0.0771 -3.20562,0.182 l -0.16217,0.0591 0.0168,3.04588 0.0168,3.04587 0.18521,0.36407 c 0.31423,0.61771 0.81641,0.97929 1.48383,1.12266 0.13722,0.0296 1.11938,0.0542 2.18256,0.0549 1.06318,6e-4 1.93306,0.0163 1.93306,0.0347 0,0.0888 -0.45618,0.59449 -0.81708,0.90565 -0.47929,0.41324 -1.14953,0.75397 -1.77719,0.90345 -0.59793,0.14241 -1.5703,0.14128 -2.15965,-0.003 z"
       style="fill:#ffffff;fill-opacity:1;stroke-width:0.999995"
       id="path1" /></g></svg>
