<svg width="430" height="430" viewBox="0 0 430 430" fill="none" xmlns="http://www.w3.org/2000/svg">
<path d="M83.4469 160.5C60.0975 111.36 111.36 60.0973 160.5 83.4468C178.755 32.1841 251.244 32.1841 269.499 83.4468C318.639 60.0973 369.902 111.36 346.552 160.5C397.815 178.755 397.815 251.244 346.552 269.5C369.902 318.64 318.639 369.902 269.499 346.553C251.244 397.815 178.755 397.815 160.5 346.553C111.36 369.902 60.0975 318.64 83.4469 269.5C32.1844 251.244 32.1844 178.755 83.4469 160.5Z" stroke="#121331" stroke-width="12" stroke-miterlimit="10" stroke-linecap="round" stroke-linejoin="round"/>
<path d="M288 147L148 287" stroke="#000000" stroke-width="12" stroke-linecap="round" stroke-linejoin="round"/>
<path d="M268 292C281.807 292 293 280.807 293 267C293 253.193 281.807 242 268 242C254.193 242 243 253.193 243 267C243 280.807 254.193 292 268 292Z" stroke="#000000" stroke-width="12" stroke-linecap="round" stroke-linejoin="round"/>
<path d="M168 192C181.807 192 193 180.807 193 167C193 153.193 181.807 142 168 142C154.193 142 143 153.193 143 167C143 180.807 154.193 192 168 192Z" stroke="#000000" stroke-width="12" stroke-linecap="round" stroke-linejoin="round"/>
</svg>
